<svg width="26" height="28" viewBox="0 0 26 28" fill="none" xmlns="http://www.w3.org/2000/svg">
    <path d="M25.5357 1.85714H22.2857V0.464286C22.2857 0.207536 22.0782 0 21.8214 0H18.5714C18.3147 0 18.1071 0.207536 18.1071 0.464286V1.85714H7.89286V0.464286C7.89286 0.207536 7.68532 0 7.42857 0H4.17857C3.92182 0 3.71429 0.207536 3.71429 0.464286V1.85714H0.464286C0.207536 1.85714 0 2.06468 0 2.32143V7.42857V27.3929C0 27.6496 0.207536 27.8571 0.464286 27.8571H25.5357C25.7925 27.8571 26 27.6496 26 27.3929V7.42857V2.32143C26 2.06468 25.7925 1.85714 25.5357 1.85714ZM19.0357 0.928571H21.3571V2.32143V3.71429H19.0357V2.32143V0.928571ZM4.64286 0.928571H6.96429V2.32143V3.71429H4.64286V2.32143V0.928571ZM0.928571 2.78571H3.71429V4.17857C3.71429 4.43532 3.92182 4.64286 4.17857 4.64286H7.42857C7.68532 4.64286 7.89286 4.43532 7.89286 4.17857V2.78571H18.1071V4.17857C18.1071 4.43532 18.3147 4.64286 18.5714 4.64286H21.8214C22.0782 4.64286 22.2857 4.43532 22.2857 4.17857V2.78571H25.0714V6.96429H0.928571V2.78571ZM0.928571 26.9286V7.89286H25.0714V26.9286H0.928571Z" fill="#818496"/>
    <path d="M16.7143 10.6786H13.4643H12.5357H9.2857H8.35713H4.17856V14.8572V15.7857V19.0357V19.9643V24.1429H8.35713H9.2857H12.5357H13.4643H16.7143H17.6428H21.8214V19.9643V19.0357V15.7857V14.8572V10.6786H17.6428H16.7143ZM13.4643 11.6072H16.7143V14.8572H13.4643V11.6072ZM16.7143 19.0357H13.4643V15.7857H16.7143V19.0357ZM9.2857 15.7857H12.5357V19.0357H9.2857V15.7857ZM9.2857 11.6072H12.5357V14.8572H9.2857V11.6072ZM5.10713 11.6072H8.35713V14.8572H5.10713V11.6072ZM5.10713 15.7857H8.35713V19.0357H5.10713V15.7857ZM8.35713 23.2143H5.10713V19.9643H8.35713V23.2143ZM12.5357 23.2143H9.2857V19.9643H12.5357V23.2143ZM16.7143 23.2143H13.4643V19.9643H16.7143V23.2143ZM20.8928 23.2143H17.6428V19.9643H20.8928V23.2143ZM20.8928 19.0357H17.6428V15.7857H20.8928V19.0357ZM20.8928 11.6072V14.8572H17.6428V11.6072H20.8928Z" fill="#818496"/>
</svg>
