<svg width="12" height="14" viewBox="0 0 12 14" fill="none" xmlns="http://www.w3.org/2000/svg">
    <path d="M5.95949 12.3206C7.84444 12.3516 9.44454 10.8059 9.44454 8.875C9.44454 6.9769 7.90001 5.43257 6.00161 5.43257C4.10351 5.43257 2.55918 6.9769 2.55918 8.875C2.55918 10.8648 4.18414 12.2915 5.95949 12.3206ZM7.1109 11.2477C6.38825 11.5819 5.58199 11.5686 4.89262 11.2474V10.8121C4.89262 10.2005 5.3902 9.70283 6.00161 9.70283C6.6127 9.70283 7.1109 10.1999 7.1109 10.8121V11.2477ZM5.44074 8.31742C5.44074 8.00802 5.69251 7.75635 6.00191 7.75635C6.31131 7.75635 6.56298 8.00802 6.56298 8.31742C6.56298 8.62631 6.31193 8.87859 6.00161 8.87859C5.69221 8.87828 5.44074 8.62682 5.44074 8.31742ZM6.00161 6.25692C8.27444 6.25692 9.46663 8.96868 7.92806 10.6473C7.8769 10.0439 7.54727 9.51824 7.06858 9.20032C7.81362 8.30314 7.17325 6.93201 6.00191 6.93201C4.83078 6.93201 4.1899 8.30283 4.93525 9.20032C4.45625 9.51793 4.12652 10.0436 4.07546 10.6471C2.54049 8.97238 3.72528 6.25692 6.00161 6.25692Z" fill="#818496"/>
    <path d="M10.3739 1.15788H9.90817V0.412121C9.90817 0.184694 9.72378 0 9.49594 0C9.26841 0 9.08382 0.184694 9.08382 0.412121V1.15788H2.91618V0.412121C2.91618 0.184694 2.73159 0 2.50406 0C2.27622 0 2.09183 0.184694 2.09183 0.412121V1.15788H1.62609C0.729533 1.15788 0 1.88742 0 2.78398V11.8379C0 12.7345 0.729533 13.464 1.62609 13.464H10.3739C11.2705 13.464 12 12.7345 12 11.8379C12 11.4024 12 2.93436 12 2.78398C12 1.88742 11.2705 1.15788 10.3739 1.15788ZM11.1757 11.8379C11.1757 12.28 10.816 12.6397 10.3739 12.6397H1.62609C1.18398 12.6397 0.824345 12.28 0.824345 11.8379V5.06297H11.1757V11.8379ZM11.1757 4.23873H0.824345V2.78398C0.824345 2.34196 1.18398 1.98223 1.62609 1.98223H2.09183V2.7282C2.09183 2.95573 2.27622 3.14042 2.50406 3.14042C2.73159 3.14042 2.91618 2.95573 2.91618 2.7282V1.98223H9.08382V2.7282C9.08382 2.95573 9.26841 3.14042 9.49594 3.14042C9.72378 3.14042 9.90817 2.95573 9.90817 2.7282V1.98223H10.3739C10.816 1.98223 11.1757 2.34196 11.1757 2.78398V4.23873Z" fill="#818496"/>
</svg>
