<svg width="28" height="28" viewBox="0 0 28 28" fill="none" xmlns="http://www.w3.org/2000/svg">
    <path d="M27.5333 27.0667H24.7333V11.6667C24.7333 11.4089 24.5244 11.2 24.2667 11.2H17.7333V0.466667C17.7333 0.20895 17.5244 0 17.2667 0H5.13333C4.87562 0 4.66667 0.20895 4.66667 0.466667V27.0667H0.466667C0.20895 27.0667 0 27.2756 0 27.5333C0 27.791 0.20895 28 0.466667 28H27.5333C27.791 28 28 27.791 28 27.5333C28 27.2756 27.791 27.0667 27.5333 27.0667ZM9.8 27.0667H7.93333V22.8667C7.93333 22.6089 8.14228 22.4 8.4 22.4H9.33333C9.59105 22.4 9.8 22.6089 9.8 22.8667V27.0667ZM11.6667 11.6667V27.0667H10.7333V22.8667C10.7333 22.0935 10.1065 21.4667 9.33333 21.4667H8.4C7.62679 21.4667 7 22.0935 7 22.8667V27.0667H5.6V0.933333H16.8V11.2H12.1333C11.8756 11.2 11.6667 11.4089 11.6667 11.6667ZM23.8 27.0667H12.6V12.1333H23.8V27.0667Z" fill="#818496"/>
    <path d="M14.9333 6.53333H12.1333C11.8756 6.53333 11.6667 6.74228 11.6667 7V9.8C11.6667 10.0577 11.8756 10.2667 12.1333 10.2667H14.9333C15.1911 10.2667 15.4 10.0577 15.4 9.8V7C15.4 6.74228 15.1911 6.53333 14.9333 6.53333ZM14.4667 9.33333H12.6V7.46667H14.4667V9.33333Z" fill="#818496"/>
    <path d="M14.9333 1.86666H12.1333C11.8756 1.86666 11.6667 2.07561 11.6667 2.33333V5.13333C11.6667 5.39105 11.8756 5.6 12.1333 5.6H14.9333C15.1911 5.6 15.4 5.39105 15.4 5.13333V2.33333C15.4 2.07561 15.1911 1.86666 14.9333 1.86666ZM14.4667 4.66666H12.6V2.8H14.4667V4.66666Z" fill="#818496"/>
    <path d="M10.2667 6.53333H7.46667C7.20895 6.53333 7 6.74228 7 7V9.8C7 10.0577 7.20895 10.2667 7.46667 10.2667H10.2667C10.5244 10.2667 10.7333 10.0577 10.7333 9.8V7C10.7333 6.74228 10.5244 6.53333 10.2667 6.53333ZM9.8 9.33333H7.93333V7.46667H9.8V9.33333Z" fill="#818496"/>
    <path d="M10.2667 1.86666H7.46667C7.20895 1.86666 7 2.07561 7 2.33333V5.13333C7 5.39105 7.20895 5.6 7.46667 5.6H10.2667C10.5244 5.6 10.7333 5.39105 10.7333 5.13333V2.33333C10.7333 2.07561 10.5244 1.86666 10.2667 1.86666ZM9.8 4.66666H7.93333V2.8H9.8V4.66666Z" fill="#818496"/>
    <path d="M10.2667 11.2H7.46667C7.20895 11.2 7 11.409 7 11.6667V14.4667C7 14.7244 7.20895 14.9333 7.46667 14.9333H10.2667C10.5244 14.9333 10.7333 14.7244 10.7333 14.4667V11.6667C10.7333 11.409 10.5244 11.2 10.2667 11.2ZM9.8 14H7.93333V12.1333H9.8V14Z" fill="#818496"/>
    <path d="M10.2667 15.8667H7.46667C7.20895 15.8667 7 16.0756 7 16.3333V19.1333C7 19.3911 7.20895 19.6 7.46667 19.6H10.2667C10.5244 19.6 10.7333 19.3911 10.7333 19.1333V16.3333C10.7333 16.0756 10.5244 15.8667 10.2667 15.8667ZM9.8 18.6667H7.93333V16.8H9.8V18.6667Z" fill="#818496"/>
    <path d="M19.1333 21.4667H21.9333C22.1911 21.4667 22.4 21.2577 22.4 21V18.2C22.4 17.9423 22.1911 17.7333 21.9333 17.7333H19.1333C18.8756 17.7333 18.6667 17.9423 18.6667 18.2V21C18.6667 21.2577 18.8756 21.4667 19.1333 21.4667ZM19.6 18.6667H21.4667V20.5333H19.6V18.6667Z" fill="#818496"/>
    <path d="M19.1333 16.8H21.9333C22.1911 16.8 22.4 16.591 22.4 16.3333V13.5333C22.4 13.2756 22.1911 13.0667 21.9333 13.0667H19.1333C18.8756 13.0667 18.6667 13.2756 18.6667 13.5333V16.3333C18.6667 16.591 18.8756 16.8 19.1333 16.8ZM19.6 14H21.4667V15.8667H19.6V14Z" fill="#818496"/>
    <path d="M19.1333 26.1333H21.9333C22.1911 26.1333 22.4 25.9244 22.4 25.6667V22.8667C22.4 22.609 22.1911 22.4 21.9333 22.4H19.1333C18.8756 22.4 18.6667 22.609 18.6667 22.8667V25.6667C18.6667 25.9244 18.8756 26.1333 19.1333 26.1333ZM19.6 23.3333H21.4667V25.2H19.6V23.3333Z" fill="#818496"/>
    <path d="M14.4667 21.4667H17.2667C17.5244 21.4667 17.7333 21.2577 17.7333 21V18.2C17.7333 17.9423 17.5244 17.7333 17.2667 17.7333H14.4667C14.2089 17.7333 14 17.9423 14 18.2V21C14 21.2577 14.2089 21.4667 14.4667 21.4667ZM14.9333 18.6667H16.8V20.5333H14.9333V18.6667Z" fill="#818496"/>
    <path d="M14.4667 16.8H17.2667C17.5244 16.8 17.7333 16.591 17.7333 16.3333V13.5333C17.7333 13.2756 17.5244 13.0667 17.2667 13.0667H14.4667C14.2089 13.0667 14 13.2756 14 13.5333V16.3333C14 16.591 14.2089 16.8 14.4667 16.8ZM14.9333 14H16.8V15.8667H14.9333V14Z" fill="#818496"/>
    <path d="M14.4667 26.1333H17.2667C17.5244 26.1333 17.7333 25.9244 17.7333 25.6667V22.8667C17.7333 22.609 17.5244 22.4 17.2667 22.4H14.4667C14.2089 22.4 14 22.609 14 22.8667V25.6667C14 25.9244 14.2089 26.1333 14.4667 26.1333ZM14.9333 23.3333H16.8V25.2H14.9333V23.3333Z" fill="#818496"/>
</svg>
