<svg width="24" height="24" viewBox="0 0 24 24" fill="none" xmlns="http://www.w3.org/2000/svg">
<circle cx="12" cy="12" r="12" fill="white"/>
<path d="M11.5854 12.0048C11.5991 12.0048 11.6128 12.0048 11.6293 12.0048C11.6347 12.0048 11.6402 12.0048 11.6457 12.0048C11.6539 12.0048 11.6649 12.0048 11.6731 12.0048C12.4768 11.9913 13.1269 11.714 13.6069 11.1837C14.6629 10.0153 14.4873 8.01243 14.4681 7.82129C14.3996 6.38642 13.7084 5.69994 13.1378 5.37958C12.7127 5.13999 12.2162 5.01077 11.6622 5H11.643C11.6402 5 11.6347 5 11.632 5H11.6155C11.3111 5 10.7131 5.04846 10.1399 5.36881C9.56386 5.68917 8.86168 6.37565 8.79311 7.82129C8.77391 8.01243 8.59836 10.0153 9.65437 11.1837C10.1316 11.714 10.7817 11.9913 11.5854 12.0048ZM9.52546 7.88859C9.52546 7.88051 9.5282 7.87244 9.5282 7.86705C9.61872 5.93684 11.0148 5.72955 11.6128 5.72955H11.6238C11.6293 5.72955 11.6375 5.72955 11.6457 5.72955C12.3863 5.7457 13.6453 6.04183 13.7303 7.86705C13.7303 7.87513 13.7303 7.88321 13.733 7.88859C13.7358 7.90743 13.9278 9.73804 13.0556 10.7018C12.7099 11.0841 12.2491 11.2725 11.643 11.2779C11.6375 11.2779 11.6347 11.2779 11.6293 11.2779C11.6238 11.2779 11.621 11.2779 11.6155 11.2779C11.0121 11.2725 10.5486 11.0841 10.2057 10.7018C9.3362 9.74343 9.52272 7.90474 9.52546 7.88859Z" fill="#C52C27"/>
<path d="M17.2659 15.3268C17.2659 15.3241 17.2659 15.3214 17.2659 15.3187C17.2659 15.2972 17.2632 15.2756 17.2632 15.2514C17.2467 14.7184 17.211 13.4719 16.0206 13.0735C16.0124 13.0708 16.0014 13.0681 15.9932 13.0654C14.7561 12.7559 13.7275 12.0559 13.7166 12.0478C13.5492 11.9321 13.3188 11.9725 13.2009 12.1367C13.083 12.3009 13.1241 12.527 13.2914 12.6428C13.338 12.6751 14.4297 13.4208 15.7957 13.7654C16.4348 13.9888 16.5061 14.6592 16.5253 15.2729C16.5253 15.2972 16.5253 15.3187 16.5281 15.3402C16.5308 15.5825 16.5143 15.9567 16.4705 16.1721C16.0261 16.4198 14.2843 17.2758 11.6347 17.2758C8.99601 17.2758 7.24329 16.4171 6.79619 16.1694C6.75231 15.954 6.7331 15.5798 6.73859 15.3376C6.73859 15.316 6.74133 15.2945 6.74133 15.2703C6.76053 14.6565 6.83185 13.9861 7.47095 13.7627C8.83692 13.4181 9.9286 12.6697 9.97523 12.6401C10.1425 12.5243 10.1837 12.2982 10.0657 12.134C9.9478 11.9698 9.7174 11.9294 9.55008 12.0451C9.53911 12.0532 8.516 12.7532 7.27346 13.0628C7.26249 13.0654 7.25426 13.0681 7.24603 13.0708C6.0556 13.4719 6.01995 14.7184 6.00349 15.2487C6.00349 15.2729 6.00349 15.2945 6.00075 15.316C6.00075 15.3187 6.00075 15.3214 6.00075 15.3241C5.998 15.4641 5.99526 16.1829 6.14064 16.5436C6.16806 16.6136 6.21744 16.6728 6.28327 16.7132C6.36555 16.767 8.33771 18 11.6374 18C14.9372 18 16.9093 16.7644 16.9916 16.7132C17.0547 16.6728 17.1068 16.6136 17.1342 16.5436C17.2714 16.1856 17.2686 15.4668 17.2659 15.3268Z" fill="#C52C27"/>
</svg>
