<svg width="14" height="15" viewBox="0 0 14 15" fill="none" xmlns="http://www.w3.org/2000/svg">
<path d="M13.7078 5.25075H0.859878C0.698695 5.25075 0.567871 5.38157 0.567871 5.54275V12.5507C0.567871 13.3554 1.22254 14.0107 2.02785 14.0107H12.5398C13.3451 14.0107 13.9997 13.3554 13.9997 12.5507V5.54275C13.9998 5.38154 13.869 5.25075 13.7078 5.25075ZM13.4158 12.5507C13.4158 13.0336 13.0228 13.4267 12.5398 13.4267H2.02788C1.5449 13.4267 1.15188 13.0336 1.15188 12.5507V5.83473H13.4158V12.5507Z" fill="white"/>
<path d="M13.9904 2.54859L13.4934 0.662878C13.379 0.204433 12.9106 -0.0834675 12.4464 0.0216516L0.68118 2.81314C0.449919 2.8657 0.254271 3.00643 0.12988 3.20851C0.00548936 3.41056 -0.0313023 3.64883 0.027088 3.8801L0.577211 6.05488C0.609924 6.18686 0.729059 6.27506 0.859856 6.27506C0.883206 6.27506 0.907159 6.27273 0.932262 6.2663C1.08819 6.22718 1.1828 6.06833 1.14307 5.91182L1.11096 5.78511L13.7726 2.90835C13.8496 2.89025 13.9168 2.84235 13.9577 2.77462C13.9992 2.70687 14.0103 2.6251 13.9904 2.54859ZM0.967931 5.21861L0.593006 3.73819C0.573735 3.6611 0.586573 3.58168 0.627471 3.51393C0.668944 3.44678 0.734342 3.40005 0.813756 3.38136L12.5789 0.590472C12.5999 0.585216 12.6215 0.582889 12.6426 0.582889C12.7734 0.582889 12.8943 0.672815 12.9276 0.807718L13.3486 2.40495L0.967931 5.21861Z" fill="white"/>
<path d="M3.32664 5.28109C3.1818 5.21044 3.00778 5.26765 2.93419 5.41192L1.76619 7.74789C1.69436 7.89213 1.75275 8.06732 1.89702 8.13976C1.93964 8.16078 1.98404 8.17072 2.02784 8.17072C2.13471 8.17072 2.23808 8.11173 2.28946 8.00896L3.45746 5.67299C3.52929 5.5287 3.47087 5.3535 3.32664 5.28109Z" fill="white"/>
<path d="M6.24598 5.28109C6.10175 5.21044 5.92655 5.26765 5.85411 5.41192L4.68612 7.74789C4.61428 7.89213 4.67267 8.06732 4.81694 8.13976C4.85956 8.16078 4.90396 8.17072 4.94776 8.17072C5.05463 8.17072 5.158 8.11173 5.20881 8.00896L6.37681 5.67299C6.44861 5.5287 6.39022 5.3535 6.24598 5.28109Z" fill="white"/>
<path d="M9.16603 5.28109C9.02236 5.21044 8.84717 5.26765 8.77416 5.41192L7.60616 7.74789C7.53433 7.89213 7.59272 8.06732 7.73698 8.13976C7.77961 8.16078 7.82401 8.17072 7.86781 8.17072C7.97468 8.17072 8.07805 8.11173 8.12885 8.00896L9.29685 5.67299C9.36868 5.5287 9.31026 5.3535 9.16603 5.28109Z" fill="white"/>
<path d="M12.0859 5.28109C11.9411 5.21044 11.7671 5.26765 11.6941 5.41192L10.5261 7.74789C10.4542 7.89213 10.5126 8.06732 10.6569 8.13976C10.6995 8.16078 10.7439 8.17072 10.7877 8.17072C10.8946 8.17072 10.998 8.11173 11.0488 8.00896L12.2168 5.67299C12.2886 5.5287 12.2302 5.3535 12.0859 5.28109Z" fill="white"/>
<path d="M13.7078 7.58672H0.859878C0.698695 7.58672 0.567871 7.71754 0.567871 7.87872C0.567871 8.03991 0.698695 8.17073 0.859878 8.17073H13.7078C13.8695 8.17073 13.9998 8.03991 13.9998 7.87872C13.9998 7.71754 13.869 7.58672 13.7078 7.58672Z" fill="white"/>
<path d="M3.68353 4.74095L1.67225 2.72967C1.55837 2.61579 1.37324 2.61579 1.25936 2.72967C1.14548 2.84355 1.14548 3.02869 1.25936 3.14256L3.27064 5.15442C3.32788 5.21106 3.40261 5.23969 3.47737 5.23969C3.55213 5.23969 3.62686 5.21108 3.68353 5.15384C3.79741 5.03994 3.79741 4.85483 3.68353 4.74095Z" fill="white"/>
<path d="M6.54036 4.09207L4.52736 2.08079C4.41348 1.96691 4.22834 1.96691 4.11446 2.08079C4.00058 2.19467 4.00058 2.37981 4.11446 2.49368L6.12692 4.50496C6.18416 4.5616 6.25889 4.59024 6.33365 4.59024C6.40841 4.59024 6.48314 4.56163 6.54038 4.50496C6.65426 4.39108 6.65426 4.20595 6.54036 4.09207Z" fill="white"/>
<path d="M9.39491 3.44327L7.38539 1.43141C7.27151 1.31753 7.08637 1.31753 6.97249 1.43141C6.85862 1.54529 6.85862 1.73043 6.97249 1.84431L8.98202 3.85616C9.03926 3.9128 9.11399 3.94143 9.18875 3.94143C9.26351 3.94143 9.33825 3.9134 9.39491 3.85616C9.50879 3.74228 9.50879 3.55714 9.39491 3.44327Z" fill="white"/>
<path d="M12.2483 2.79503L10.2382 0.783174C10.1243 0.669295 9.93916 0.669295 9.82528 0.783174C9.7114 0.897053 9.7114 1.08219 9.82528 1.19607L11.8354 3.20792C11.8926 3.26456 11.9674 3.29319 12.0421 3.29319C12.1169 3.29319 12.1916 3.26459 12.2483 3.20792C12.3622 3.09404 12.3622 2.90891 12.2483 2.79503Z" fill="white"/>
</svg>
